<?xml version="1.0" encoding="UTF-8" standalone="no"?>
<!DOCTYPE svg PUBLIC "-//W3C//DTD SVG 1.1//EN" "http://www.w3.org/Graphics/SVG/1.1/DTD/svg11.dtd">
<svg width="100%" height="100%" viewBox="0 0 4200 750" version="1.1" xmlns="http://www.w3.org/2000/svg" xmlns:xlink="http://www.w3.org/1999/xlink" xml:space="preserve" style="fill-rule:evenodd;clip-rule:evenodd;stroke-linecap:round;stroke-linejoin:round;stroke-miterlimit:1.41421;">
    <g id="Layer1" transform="matrix(1,0,0,1,600,-225)">
        <g transform="matrix(-1.41295,-9.88755e-17,7.43685e-17,0.862853,3595.98,96.7615)">
            <rect x="-2.844" y="148.621" width="2972.51" height="1043.05" style="fill:rgb(80,227,194);"/>
        </g>
        <g transform="matrix(0.905765,-0.423781,0.423781,0.905765,189.743,633.872)">
            <text x="0px" y="250.833px" style="font-family:'HanziPenSC-W3', 'HanziPen SC', cursive;font-size:291.667px;fill:white;">All</text>
        </g>
        <g transform="matrix(0.847669,-0.312031,0.312031,0.847669,1462.52,559.129)">
            <text x="1271.3px" y="328.765px" style="font-family:'Noteworthy-Light', 'Noteworthy';font-weight:300;font-size:135.759px;fill:white;">Ch<tspan x="1410.62px 1434.55px " y="328.765px 328.765px ">ir</tspan>p!</text>
        </g>
        <g transform="matrix(0.661146,-0.177153,0.15497,0.578356,1879.03,649.169)">
            <text x="1271.3px" y="328.765px" style="font-family:'Noteworthy-Light', 'Noteworthy';font-weight:300;font-size:135.759px;fill:white;">Ch<tspan x="1410.62px 1434.55px " y="328.765px 328.765px ">ir</tspan>p!</text>
        </g>
        <g transform="matrix(0.528814,0,0,0.54994,2225.34,280.166)">
            <text x="1271.3px" y="328.765px" style="font-family:'Noteworthy-Light', 'Noteworthy';font-weight:300;font-size:135.759px;fill:white;">Ch<tspan x="1410.62px 1434.55px " y="328.765px 328.765px ">ir</tspan>p!</text>
        </g>
        <g transform="matrix(0.972962,-0.230964,0.230964,0.972962,613.978,381.494)">
            <text x="0px" y="250.833px" style="font-family:'HanziPenSC-W3', 'HanziPen SC', cursive;font-size:291.667px;fill:white;">Out!</text>
        </g>
    </g>
    <g transform="matrix(-0.903275,0,0,0.903275,4528.63,-125.498)">
        <g transform="matrix(1.01298,0,0,0.920645,-116.307,-16.0776)">
            <ellipse cx="755.764" cy="655.366" rx="257.386" ry="284.306" style="fill:white;"/>
        </g>
        <path d="M485.243,790.038L484.877,789.772L421.474,849.261L387.338,726.358L433.753,733.905L446.951,751.21L470.296,776.431" style="fill:white;stroke-width:1.11px;stroke:white;"/>
        <g transform="matrix(0.953917,0,0,0.987362,45.3641,7.50346)">
            <path d="M905.757,594.768L900.192,572.87L895.255,532.726L886.058,488.587L984.403,510.742L942.041,545.911L979.59,579.359L905.757,594.768Z" style="fill:white;"/>
        </g>
        <path d="M582.855,839.602L538.3,951.718" style="fill:none;stroke-width:3.69px;stroke:white;"/>
        <path d="M568.532,875.711L572.329,958.255" style="fill:none;stroke-width:3.69px;stroke:white;"/>
        <path d="M570.279,904.693L610.579,952.842" style="fill:none;stroke-width:3.69px;stroke:white;"/>
        <path d="M757.33,824.967L786.36,906.075" style="fill:none;stroke-width:3.69px;stroke:white;"/>
        <path d="M768.674,856.923L770.082,929.453" style="fill:none;stroke-width:3.69px;stroke:white;"/>
        <path d="M769.078,857.945L842.193,896.581" style="fill:none;stroke-width:3.69px;stroke:white;"/>
        <path d="M590.095,332.397C580.257,332.397 581.023,324.481 574.994,318.452C571.713,315.171 566.27,313.553 563.287,311.491C557.265,307.327 526.34,309.119 526.34,316.832" style="fill:none;stroke-width:3.69px;stroke:white;"/>
        <path d="M613.698,328.69C595.194,310.186 592.886,287.235 563.045,287.235" style="fill:none;stroke-width:3.69px;stroke:white;"/>
        <g transform="matrix(0.958387,-0.285472,0.285472,0.958387,-104.087,237.19)">
            <ellipse cx="761.539" cy="475.624" rx="14.36" ry="31.394" style="fill:rgb(80,227,194);stroke-width:1.11px;stroke:rgb(80,227,194);"/>
        </g>
    </g>
    <g id="Text" transform="matrix(1,0,0,1,19.8824,-775.494)">
        <g transform="matrix(0.995269,0.0971564,-0.0971564,0.995269,-633.688,125.933)">
            <text x="776.541px" y="855.382px" style="font-family:'HanziPenSC-W3', 'HanziPen SC', cursive;font-size:291.667px;fill:white;">Let</text>
        </g>
        <g transform="matrix(0.956335,-0.292274,0.292274,0.956335,450.968,1069.32)">
            <text x="0px" y="250.833px" style="font-family:'HanziPenSC-W3', 'HanziPen SC', cursive;font-size:291.667px;fill:white;">It</text>
        </g>
    </g>
    <g id="babybirds" transform="matrix(1,0,0,1,600,-225)">
        <g transform="matrix(0.394685,0,0,0.394685,1988.84,586.86)">
            <g transform="matrix(1.01298,0,0,0.920645,-116.307,-16.0776)">
                <ellipse cx="755.764" cy="655.366" rx="257.386" ry="284.306" style="fill:rgb(0,150,255);stroke-width:2.62px;stroke:rgb(0,150,255);"/>
            </g>
            <path d="M485.243,790.038L484.877,789.772L421.474,849.261L387.338,726.358L433.753,733.905L446.951,751.21L470.296,776.431" style="fill:rgb(0,150,255);stroke-width:2.53px;stroke:rgb(0,150,255);"/>
            <g transform="matrix(0.953917,0,0,0.987362,45.3641,7.50346)">
                <path d="M905.757,594.768L900.192,572.87L895.255,532.726L886.058,488.587L984.403,510.742L942.041,545.911L979.59,579.359L905.757,594.768Z" style="fill:rgb(0,150,255);stroke-width:2.61px;stroke:rgb(0,150,255);"/>
            </g>
            <path d="M582.855,839.602L538.3,951.718" style="fill:rgb(0,150,255);stroke-width:8.45px;stroke:rgb(0,150,255);"/>
            <path d="M568.532,875.711L572.329,958.255" style="fill:rgb(0,150,255);stroke-width:8.45px;stroke:rgb(0,150,255);"/>
            <path d="M570.279,904.693L610.579,952.842" style="fill:rgb(0,150,255);stroke-width:8.45px;stroke:rgb(0,150,255);"/>
            <path d="M757.33,824.967L786.36,906.075" style="fill:rgb(0,150,255);stroke-width:8.45px;stroke:rgb(0,150,255);"/>
            <path d="M768.674,856.923L770.082,929.453" style="fill:rgb(0,150,255);stroke-width:8.45px;stroke:rgb(0,150,255);"/>
            <path d="M769.078,857.945L842.193,896.581" style="fill:rgb(0,150,255);stroke-width:8.45px;stroke:rgb(0,150,255);"/>
            <path d="M590.095,332.397C580.257,332.397 581.023,324.481 574.994,318.452C571.713,315.171 566.27,313.553 563.287,311.491C557.265,307.327 526.34,309.119 526.34,316.832" style="fill:none;stroke-width:8.45px;stroke:rgb(0,150,255);"/>
            <path d="M613.698,328.69C595.194,310.186 592.886,287.235 563.045,287.235" style="fill:none;stroke-width:8.45px;stroke:rgb(0,150,255);"/>
            <g transform="matrix(0.958387,-0.285472,0.285472,0.958387,-104.087,237.19)">
                <ellipse cx="761.539" cy="475.624" rx="14.36" ry="31.394" style="fill:rgb(80,227,194);"/>
            </g>
        </g>
        <g transform="matrix(0.589254,0,0,0.589254,1213.92,400.414)">
            <g transform="matrix(1.01298,0,0,0.920645,-116.307,-16.0776)">
                <ellipse cx="755.764" cy="655.366" rx="257.386" ry="284.306" style="fill:rgb(189,139,208);stroke-width:1.75px;stroke:rgb(189,139,208);"/>
            </g>
            <path d="M485.243,790.038L484.877,789.772L421.474,849.261L387.338,726.358L433.753,733.905L446.951,751.21L470.296,776.431" style="fill:rgb(189,139,208);stroke-width:1.7px;stroke:rgb(189,139,208);"/>
            <g transform="matrix(0.953917,0,0,0.987362,45.3641,7.50346)">
                <path d="M905.757,594.768L900.192,572.87L895.255,532.726L886.058,488.587L984.403,510.742L942.041,545.911L979.59,579.359L905.757,594.768Z" style="fill:rgb(189,139,208);stroke-width:1.75px;stroke:rgb(189,139,208);"/>
            </g>
            <path d="M582.855,839.602L538.3,951.718" style="fill:rgb(189,139,208);stroke-width:5.66px;stroke:rgb(189,139,208);"/>
            <path d="M568.532,875.711L572.329,958.255" style="fill:rgb(189,139,208);stroke-width:5.66px;stroke:rgb(189,139,208);"/>
            <path d="M570.279,904.693L610.579,952.842" style="fill:rgb(189,139,208);stroke-width:5.66px;stroke:rgb(189,139,208);"/>
            <path d="M757.33,824.967L786.36,906.075" style="fill:rgb(189,139,208);stroke-width:5.66px;stroke:rgb(189,139,208);"/>
            <path d="M768.674,856.923L770.082,929.453" style="fill:rgb(189,139,208);stroke-width:5.66px;stroke:rgb(189,139,208);"/>
            <path d="M769.078,857.945L842.193,896.581" style="fill:rgb(189,139,208);stroke-width:5.66px;stroke:rgb(189,139,208);"/>
            <path d="M590.095,332.397C580.257,332.397 581.023,324.481 574.994,318.452C571.713,315.171 566.27,313.553 563.287,311.491C557.265,307.327 526.34,309.119 526.34,316.832" style="fill:none;stroke-width:5.66px;stroke:rgb(189,139,208);"/>
            <path d="M613.698,328.69C595.194,310.186 592.886,287.235 563.045,287.235" style="fill:none;stroke-width:5.66px;stroke:rgb(189,139,208);"/>
            <g transform="matrix(0.958387,-0.285472,0.285472,0.958387,-104.087,237.19)">
                <ellipse cx="761.539" cy="475.624" rx="14.36" ry="31.394" style="fill:rgb(80,227,194);"/>
            </g>
        </g>
        <g transform="matrix(0.438619,0,0,0.438619,878.838,544.761)">
            <g transform="matrix(1.01298,0,0,0.920645,-116.307,-16.0776)">
                <ellipse cx="755.764" cy="655.366" rx="257.386" ry="284.306" style="fill:rgb(255,255,99);stroke-width:2.36px;stroke:rgb(255,255,99);"/>
            </g>
            <path d="M485.243,790.038L484.877,789.772L421.474,849.261L387.338,726.358L433.753,733.905L446.951,751.21L470.296,776.431" style="fill:rgb(255,255,99);stroke-width:2.28px;stroke:rgb(255,255,99);"/>
            <g transform="matrix(0.953917,0,0,0.987362,45.3641,7.50346)">
                <path d="M905.757,594.768L900.192,572.87L895.255,532.726L886.058,488.587L984.403,510.742L942.041,545.911L979.59,579.359L905.757,594.768Z" style="fill:rgb(255,255,99);stroke-width:2.35px;stroke:rgb(255,255,99);"/>
            </g>
            <path d="M582.855,839.602L538.3,951.718" style="fill:none;stroke-width:7.6px;stroke:rgb(255,255,99);"/>
            <path d="M568.532,875.711L572.329,958.255" style="fill:none;stroke-width:7.6px;stroke:rgb(255,255,99);"/>
            <path d="M570.279,904.693L610.579,952.842" style="fill:none;stroke-width:7.6px;stroke:rgb(255,255,99);"/>
            <path d="M757.33,824.967L786.36,906.075" style="fill:none;stroke-width:7.6px;stroke:rgb(255,255,99);"/>
            <path d="M768.674,856.923L770.082,929.453" style="fill:none;stroke-width:7.6px;stroke:rgb(255,255,99);"/>
            <path d="M769.078,857.945L842.193,896.581" style="fill:none;stroke-width:7.6px;stroke:rgb(255,255,99);"/>
            <path d="M590.095,332.397C580.257,332.397 581.023,324.481 574.994,318.452C571.713,315.171 566.27,313.553 563.287,311.491C557.265,307.327 526.34,309.119 526.34,316.832" style="fill:none;stroke-width:7.6px;stroke:rgb(255,255,99);"/>
            <path d="M613.698,328.69C595.194,310.186 592.886,287.235 563.045,287.235" style="fill:none;stroke-width:7.6px;stroke:rgb(255,255,99);"/>
            <g transform="matrix(0.958387,-0.285472,0.285472,0.958387,-104.087,237.19)">
                <ellipse cx="761.539" cy="475.624" rx="14.36" ry="31.394" style="fill:rgb(80,227,194);"/>
            </g>
        </g>
        <g transform="matrix(0.297004,0,0,0.297004,1765.49,680.463)">
            <g transform="matrix(1.01298,0,0,0.920645,-116.307,-16.0776)">
                <ellipse cx="755.764" cy="655.366" rx="257.386" ry="284.306" style="fill:rgb(0,206,0);stroke-width:3.48px;stroke:rgb(0,206,0);"/>
            </g>
            <path d="M485.243,790.038L484.877,789.772L421.474,849.261L387.338,726.358L433.753,733.905L446.951,751.21L470.296,776.431" style="fill:rgb(0,206,0);stroke-width:3.37px;stroke:rgb(0,206,0);"/>
            <g transform="matrix(0.953917,0,0,0.987362,45.3641,7.50346)">
                <path d="M905.757,594.768L900.192,572.87L895.255,532.726L886.058,488.587L984.403,510.742L942.041,545.911L979.59,579.359L905.757,594.768Z" style="fill:rgb(0,206,0);stroke-width:3.47px;stroke:rgb(0,206,0);"/>
            </g>
            <path d="M582.855,839.602L538.3,951.718" style="fill:rgb(0,206,0);stroke-width:11.22px;stroke:rgb(0,206,0);"/>
            <path d="M568.532,875.711L572.329,958.255" style="fill:rgb(0,206,0);stroke-width:11.22px;stroke:rgb(0,206,0);"/>
            <path d="M570.279,904.693L610.579,952.842" style="fill:rgb(0,206,0);stroke-width:11.22px;stroke:rgb(0,206,0);"/>
            <path d="M757.33,824.967L786.36,906.075" style="fill:rgb(0,206,0);stroke-width:11.22px;stroke:rgb(0,206,0);"/>
            <path d="M768.674,856.923L770.082,929.453" style="fill:rgb(0,206,0);stroke-width:11.22px;stroke:rgb(0,206,0);"/>
            <path d="M769.078,857.945L842.193,896.581" style="fill:rgb(0,206,0);stroke-width:11.22px;stroke:rgb(0,206,0);"/>
            <path d="M590.095,332.397C580.257,332.397 581.023,324.481 574.994,318.452C571.713,315.171 566.27,313.553 563.287,311.491C557.265,307.327 526.34,309.119 526.34,316.832" style="fill:none;stroke-width:11.22px;stroke:rgb(0,206,0);"/>
            <path d="M613.698,328.69C595.194,310.186 592.886,287.235 563.045,287.235" style="fill:none;stroke-width:11.22px;stroke:rgb(0,206,0);"/>
            <g transform="matrix(0.958387,-0.285472,0.285472,0.958387,-104.087,237.19)">
                <ellipse cx="761.539" cy="475.624" rx="14.36" ry="31.394" style="fill:rgb(80,227,194);"/>
            </g>
        </g>
        <g transform="matrix(0.555292,-0.185448,0.192857,0.577477,1022.9,724.787)">
            <text x="1271.3px" y="328.765px" style="font-family:'Noteworthy-Light', 'Noteworthy';font-weight:300;font-size:135.759px;fill:white;">Ch<tspan x="1410.62px 1434.55px " y="328.765px 328.765px ">ir</tspan>p!</text>
        </g>
        <g transform="matrix(0.458734,-0.363736,0.378267,0.477061,1132.21,854.451)">
            <text x="1271.3px" y="328.765px" style="font-family:'Noteworthy-Light', 'Noteworthy';font-weight:300;font-size:135.759px;fill:white;">Ch<tspan x="1410.62px 1434.55px " y="328.765px 328.765px ">ir</tspan>p!</text>
        </g>
        <g transform="matrix(0.332722,-0.144496,0.185563,0.427283,1889.45,819.256)">
            <text x="1271.3px" y="328.765px" style="font-family:'Noteworthy-Light', 'Noteworthy';font-weight:300;font-size:135.759px;fill:white;">Ch<tspan x="1410.62px 1434.55px " y="328.765px 328.765px ">ir</tspan>p!</text>
        </g>
        <g transform="matrix(0.314022,-0.0221397,0.0317149,0.449832,876.054,613.931)">
            <text x="1271.3px" y="328.765px" style="font-family:'Noteworthy-Light', 'Noteworthy';font-weight:300;font-size:135.759px;fill:white;">Ch<tspan x="1410.62px 1434.55px " y="328.765px 328.765px ">ir</tspan>p!</text>
        </g>
    </g>
</svg>
