<?xml version="1.0" encoding="UTF-8" standalone="no"?>
<!DOCTYPE svg PUBLIC "-//W3C//DTD SVG 1.1//EN" "http://www.w3.org/Graphics/SVG/1.1/DTD/svg11.dtd">
<svg width="100%" height="100%" viewBox="0 0 204 233" version="1.1" xmlns="http://www.w3.org/2000/svg" xmlns:xlink="http://www.w3.org/1999/xlink" xml:space="preserve" style="fill-rule:evenodd;clip-rule:evenodd;stroke-linecap:round;stroke-linejoin:round;stroke-miterlimit:1.41421;">
    <g transform="matrix(1,0,0,1,-43.4945,-28.4335)">
        <g transform="matrix(0.338251,0,0,0.338251,-86.657,-65.8373)">
            <path d="M485.243,790.038L484.877,789.772L421.474,849.261L387.338,726.358L433.753,733.905L446.951,751.21L470.296,776.431" style="fill:rgb(80,227,194);stroke-width:2.96px;stroke:rgb(80,227,194);"/>
            <g transform="matrix(0.953917,0,0,0.987362,45.3641,7.50346)">
                <path d="M905.757,594.768L900.192,572.87L895.255,532.726L886.058,488.587L984.403,510.742L942.041,545.911L979.59,579.359L905.757,594.768Z" style="fill:rgb(80,227,194);stroke-width:3.05px;stroke:rgb(80,227,194);"/>
            </g>
            <path d="M582.855,839.602L538.3,951.718" style="fill:rgb(80,227,194);stroke-width:9.85px;stroke:rgb(80,227,194);"/>
            <path d="M568.532,875.711L572.329,958.255" style="fill:rgb(80,227,194);stroke-width:9.85px;stroke:rgb(80,227,194);"/>
            <path d="M570.279,904.693L610.579,952.842" style="fill:rgb(80,227,194);stroke-width:9.85px;stroke:rgb(80,227,194);"/>
            <path d="M757.33,824.967L786.36,906.075" style="fill:rgb(80,227,194);stroke-width:9.85px;stroke:rgb(80,227,194);"/>
            <path d="M768.674,856.923L770.082,929.453" style="fill:rgb(80,227,194);stroke-width:9.85px;stroke:rgb(80,227,194);"/>
            <path d="M769.078,857.945L842.193,896.581" style="fill:rgb(80,227,194);stroke-width:9.85px;stroke:rgb(80,227,194);"/>
            <path d="M590.095,332.397C580.257,332.397 581.023,324.481 574.994,318.452C571.713,315.171 566.27,313.553 563.287,311.491C557.265,307.327 526.34,309.119 526.34,316.832" style="fill:none;stroke-width:9.85px;stroke:rgb(80,227,194);"/>
            <path d="M613.698,328.69C595.194,310.186 592.886,287.235 563.045,287.235" style="fill:none;stroke-width:9.85px;stroke:rgb(80,227,194);"/>
            <g transform="matrix(2.95639,0,0,2.95639,256.191,194.64)">
                <path d="M132.958,44.276C181.632,44.276 221.149,83.947 221.149,132.811C221.149,181.675 181.632,221.347 132.958,221.347C84.284,221.347 44.767,181.675 44.767,132.811C44.767,83.947 84.284,44.276 132.958,44.276ZM167.903,84.866C170.472,84.101 173.916,88.04 175.589,93.656C177.262,99.273 176.535,104.455 173.966,105.22C172.962,105.519 171.825,105.1 170.712,104.144C168.976,102.652 167.299,99.852 166.279,96.43C164.606,90.813 165.333,85.631 167.903,84.866Z" style="fill:rgb(80,227,194);stroke-width:1px;stroke:rgb(80,227,194);"/>
            </g>
        </g>
    </g>
</svg>
